<?xml version="1.0" encoding="UTF-8" standalone="no"?>
<!-- Created with Inkscape (http://www.inkscape.org/) -->

<svg
   width="109.95904mm"
   height="118.66562mm"
   viewBox="0 0 109.95904 118.66562"
   version="1.1"
   id="svg1"
   xml:space="preserve"
   inkscape:export-filename="bitmap.svg"
   inkscape:export-xdpi="96"
   inkscape:export-ydpi="96"
   xmlns:inkscape="http://www.inkscape.org/namespaces/inkscape"
   xmlns:sodipodi="http://sodipodi.sourceforge.net/DTD/sodipodi-0.dtd"
   xmlns="http://www.w3.org/2000/svg"
   xmlns:svg="http://www.w3.org/2000/svg"><sodipodi:namedview
     id="namedview1"
     pagecolor="#ffffff"
     bordercolor="#000000"
     borderopacity="0.25"
     inkscape:showpageshadow="2"
     inkscape:pageopacity="0.0"
     inkscape:pagecheckerboard="0"
     inkscape:deskcolor="#d1d1d1"
     inkscape:document-units="mm" /><defs
     id="defs1" /><g
     inkscape:label="Layer 1"
     inkscape:groupmode="layer"
     id="layer1"
     transform="translate(-52.35267,-73.490629)"><path
       style="fill:#ffffff"
       d="m 88.27869,191.56093 c -1.91249,-1.30163 -2.50677,-3.06235 -1.72475,-5.11003 0.32354,-0.84719 0.77774,-1.4133 1.53704,-1.91579 l 1.07779,-0.71324 h 18.14328 18.14328 l 0.97342,0.60529 c 1.30638,0.81233 2.18561,2.61887 1.98878,4.08633 -0.16887,1.25899 -0.80381,2.21054 -2.03346,3.04744 l -0.8747,0.59531 h -18.17799 -18.178 z M 71.34535,174.6276 c -1.91248,-1.30163 -2.50676,-3.06235 -1.72475,-5.11003 0.32355,-0.84719 0.77775,-1.41331 1.53705,-1.91579 l 1.07779,-0.71325 h 35.07661 35.07662 l 0.97341,0.60529 c 1.30638,0.81234 2.18561,2.61887 1.98878,4.08633 -0.16887,1.259 -0.80381,2.21055 -2.03346,3.04745 l -0.8747,0.59531 H 107.33138 72.22005 Z M 54.412022,157.69426 c -1.912483,-1.30162 -2.506766,-3.06234 -1.72475,-5.11002 0.323341,-0.84665 0.778003,-1.41363 1.536303,-1.91579 l 1.077047,-0.71325 7.066898,-0.0817 7.0669,-0.0817 0.43834,-2.39589 c 3.54089,-19.35415 21.15362,-32.85587 40.65137,-31.16286 17.19311,1.49289 31.16186,14.19668 34.26587,31.16286 l 0.43833,2.39589 7.04683,0.0817 c 6.81017,0.079 7.07953,0.10204 8.02025,0.687 1.30639,0.81234 2.18561,2.61887 1.98878,4.08633 -0.16886,1.259 -0.8038,2.21055 -2.03346,3.04744 l -0.87469,0.59532 H 107.33138 55.286718 Z m 82.162868,-8.46666 c -0.0744,-0.32743 -0.25642,-1.16365 -0.40443,-1.85829 -1.36565,-6.40921 -5.9482,-13.30874 -11.42791,-17.20598 -5.40324,-3.84285 -10.80521,-5.57144 -17.41117,-5.57144 -6.5755,0 -12.01138,1.7314 -17.34599,5.52493 -5.52844,3.93135 -10.12486,10.83112 -11.4931,17.25249 -0.14801,0.69464 -0.33,1.53086 -0.40443,1.85829 l -0.13531,0.59531 h 29.37883 29.37883 z M 69.62825,122.04693 c -0.84973,-0.36253 -9.86881,-9.58882 -10.17365,-10.40739 -0.41341,-1.11008 -0.33939,-2.00273 0.27055,-3.2627 1.03912,-2.14653 3.84769,-2.97525 5.85373,-1.72727 1.31465,0.81787 9.39453,9.06374 9.71953,9.91921 0.70623,1.85895 0.0395,4.04425 -1.56898,5.14215 -0.917,0.62594 -3.01814,0.79808 -4.10118,0.336 z m 71.33209,-0.31282 c -1.63642,-1.12562 -2.30665,-3.29476 -1.596,-5.16533 0.325,-0.85547 8.40488,-9.10134 9.71954,-9.91921 1.19122,-0.74107 3.16204,-0.72952 4.38403,0.0257 1.00767,0.62277 2.01763,2.40087 2.01763,3.55216 0,1.43457 -0.82373,2.50487 -5.51884,7.17081 l -4.77899,4.74929 -1.6641,0.10253 c -1.41283,0.0871 -1.79988,0.009 -2.56327,-0.51596 z m -35.74832,-14.83984 c -0.48108,-0.32742 -1.12377,-0.93128 -1.42819,-1.34192 -0.53438,-0.72083 -0.55611,-1.08084 -0.62918,-10.423454 l -0.0757,-9.67682 -2.32694,2.27703 c -2.48108,2.42786 -3.16296,2.82715 -4.8281,2.82715 -2.63196,0 -4.54839,-2.49618 -3.94558,-5.13917 0.19719,-0.86458 1.02057,-1.82284 4.92527,-5.732063 5.86145,-5.868242 6.4105,-6.194396 10.42776,-6.194396 4.04933,0 4.55202,0.297811 10.40239,6.162744 3.92504,3.934795 4.75348,4.899305 4.95064,5.763715 0.60281,2.64299 -1.31363,5.13917 -3.94559,5.13917 -1.66514,0 -2.34702,-0.39929 -4.8281,-2.82715 l -2.32694,-2.27703 -0.0757,9.67682 c -0.0731,9.342614 -0.0948,9.702624 -0.62918,10.423454 -0.93871,1.26622 -2.16747,1.93723 -3.54754,1.93723 -0.85521,0 -1.51836,-0.18628 -2.11936,-0.59531 z"
       id="path1" /></g></svg>
