<?xml version="1.0" encoding="UTF-8" standalone="no"?>
<!-- Created with Inkscape (http://www.inkscape.org/) -->

<svg
   width="109.94339mm"
   height="121.46836mm"
   viewBox="0 0 109.94339 121.46836"
   version="1.1"
   id="svg1"
   xml:space="preserve"
   inkscape:export-filename="bitmap.svg"
   inkscape:export-xdpi="96"
   inkscape:export-ydpi="96"
   xmlns:inkscape="http://www.inkscape.org/namespaces/inkscape"
   xmlns:sodipodi="http://sodipodi.sourceforge.net/DTD/sodipodi-0.dtd"
   xmlns="http://www.w3.org/2000/svg"
   xmlns:svg="http://www.w3.org/2000/svg"><sodipodi:namedview
     id="namedview1"
     pagecolor="#ffffff"
     bordercolor="#000000"
     borderopacity="0.25"
     inkscape:showpageshadow="2"
     inkscape:pageopacity="0.0"
     inkscape:pagecheckerboard="0"
     inkscape:deskcolor="#d1d1d1"
     inkscape:document-units="mm" /><defs
     id="defs1" /><g
     inkscape:label="Layer 1"
     inkscape:groupmode="layer"
     id="layer1"
     transform="translate(-55.017145,-81.868856)"><path
       style="fill:#ffffff;stroke:none"
       d="m 105.7748,106.74927 c -1.55903,-1.55903 -3.22611,-3.88688 -5.29166,-4.76373 -2.722109,-1.15555 -5.804729,0.73177 -5.892489,3.7054 -0.0916,3.10394 3.39048,5.43549 5.36332,7.40833 1.432049,1.43205 2.803799,3.00742 4.497919,4.13738 6.33293,4.22402 11.68111,-0.20808 16.13958,-4.66654 1.74504,-1.74505 4.58296,-3.69675 4.81823,-6.35001 0.28237,-3.18456 -2.93719,-5.48236 -5.87657,-4.23456 -2.06555,0.87685 -3.73263,3.2047 -5.29166,4.76373 V 88.228445 c 0,-2.53097 -0.11174,-5.54306 -3.175,-6.24568 -2.48296,-0.56952 -4.92044,1.05339 -5.24267,3.59984 -0.86409,6.82853 -0.049,14.27942 -0.049,21.166665 M 64.764389,117.2195 c -2.479217,0.71143 -3.535758,3.74291 -2.3443,5.93394 0.722489,1.32862 2.080792,2.38232 3.13805,3.43958 2.468385,2.46839 5.94417,7.82545 10.053962,6.4286 2.545425,-0.86514 3.263534,-3.97601 2.019694,-6.16401 -0.756191,-1.3302 -2.007407,-2.36917 -3.077823,-3.43959 -2.495415,-2.49541 -5.681315,-7.37742 -9.789583,-6.19852 m 87.577081,0.0345 c -1.38337,0.46788 -2.4382,1.72465 -3.43959,2.72443 -2.18289,2.17939 -5.8155,4.70428 -6.88712,7.67292 -1.21556,3.36739 1.9519,6.43313 5.29962,5.38353 1.29569,-0.40623 2.24597,-1.54564 3.175,-2.47312 2.20862,-2.20493 6.24476,-4.96785 7.33852,-7.9375 1.25427,-3.40547 -2.1424,-6.50128 -5.48643,-5.37026 m -80.168748,43.47026 c -4.36331,0 -10.108697,-0.98153 -14.287296,0.35176 -2.530207,0.80732 -3.711812,4.03565 -2.19547,6.25874 1.608312,2.35793 4.477542,1.85617 6.957766,1.85617 h 17.727083 58.737495 16.40417 c 2.09678,0 5.22949,0.57666 7.14354,-0.38544 3.00744,-1.51169 3.12809,-6.06574 -0.004,-7.53226 -3.88052,-1.81714 -10.58672,-0.54897 -14.81279,-0.54897 -1.06142,-8.39143 -4.66649,-16.38076 -10.60702,-22.47916 -13.02434,-13.37049 -35.09733,-14.88936 -49.982559,-3.81258 -3.916072,2.91413 -7.206569,6.52421 -9.772433,10.68133 -2.923461,4.73648 -4.614081,10.11802 -5.308816,15.61041 m 67.204158,0 H 80.639388 c 3.000709,-23.23563 31.731732,-32.82806 48.947912,-18.02617 2.58478,2.2223 4.81152,4.94862 6.40798,7.97201 1.67036,3.16332 2.92141,6.49068 3.3816,10.05416 m -63.499992,17.0497 c -4.067702,0.66017 -5.630549,6.33646 -1.322916,8.08326 1.534061,0.62209 3.663705,0.26704 5.291666,0.26704 h 11.112503 38.364579 11.90625 c 1.7843,0 3.80192,0.31435 5.28003,-0.89807 2.2883,-1.87699 1.97578,-5.72636 -0.78599,-7.01963 -3.09445,-1.44905 -8.02484,-0.54897 -11.37321,-0.54897 H 95.191471 c -6.21802,0 -13.179501,-0.87932 -19.314583,0.11637 m 16.933333,16.93334 c -4.0677,0.66016 -5.63055,6.33646 -1.32292,8.08326 2.32112,0.94124 5.98362,0.26703 8.46667,0.26703 h 19.314579 c 2.68403,0 7.09258,0.83711 9.5248,-0.38544 4.18944,-2.10582 2.19696,-7.4707 -1.85188,-8.00466 -5.97193,-0.78758 -12.4948,-0.0766 -18.52083,-0.0766 -5.03566,0 -10.640239,-0.69027 -15.610419,0.11637 z"
       id="path1" /></g></svg>
